<svg width="42" height="42" viewBox="0 0 42 42" fill="none" xmlns="http://www.w3.org/2000/svg">
<circle cx="21" cy="21" r="21" fill="#A252C8"/>
<circle cx="21" cy="21" r="20" stroke="#A252C8" stroke-width="2"/>
<circle cx="21" cy="21" r="20" fill="#A252C8"/>
<circle cx="21" cy="21" r="19" stroke="#F8FAFC" stroke-width="2"/>
<g filter="url(#filter0_d_3891_5238)">
<path d="M24.096 14.968C24.16 15.272 24.16 15.592 24.096 15.928C24.064 16.088 24.032 16.248 24 16.408C23.984 16.552 23.96 16.704 23.928 16.864L23.904 16.96C23.68 17.952 23.424 19 23.136 20.104C22.864 21.192 22.616 22.224 22.392 23.2C22.2 24 22 24.88 21.792 25.84C21.584 26.8 21.368 27.68 21.144 28.48C21.064 28.752 20.976 29.024 20.88 29.296C20.8 29.568 20.696 29.84 20.568 30.112C20.456 30.352 20.32 30.568 20.16 30.76C20.016 30.936 19.848 31.064 19.656 31.144C19.464 31.24 19.256 31.272 19.032 31.24C18.824 31.224 18.592 31.128 18.336 30.952C17.952 30.68 17.664 30.304 17.472 29.824C17.296 29.344 17.112 28.904 16.92 28.504C16.856 28.392 16.76 28.144 16.632 27.76C16.504 27.376 16.368 26.96 16.224 26.512C16.08 26.048 15.936 25.608 15.792 25.192C15.664 24.76 15.552 24.44 15.456 24.232C15.312 24.584 15.168 24.984 15.024 25.432C14.88 25.88 14.744 26.32 14.616 26.752C14.488 27.184 14.368 27.576 14.256 27.928C14.16 28.264 14.088 28.512 14.04 28.672C13.912 28.992 13.768 29.344 13.608 29.728C13.464 30.112 13.28 30.44 13.056 30.712C12.848 30.984 12.592 31.16 12.288 31.24C11.984 31.336 11.624 31.248 11.208 30.976C10.888 30.784 10.664 30.512 10.536 30.16C10.456 29.936 10.376 29.72 10.296 29.512C10.216 29.304 10.152 29.088 10.104 28.864L9.624 27.064L8.64 23.2C8.512 22.704 8.384 22.2 8.256 21.688C8.144 21.16 8.008 20.616 7.848 20.056C7.768 19.784 7.696 19.52 7.632 19.264C7.584 18.992 7.528 18.704 7.464 18.4C7.416 18.08 7.352 17.72 7.272 17.32C7.208 16.92 7.128 16.456 7.032 15.928C7 15.752 6.976 15.592 6.96 15.448C6.96 15.288 6.976 15.128 7.008 14.968C7.04 14.728 7.152 14.52 7.344 14.344C7.424 14.264 7.52 14.2 7.632 14.152C7.744 14.104 7.864 14.064 7.992 14.032C8.184 13.968 8.384 13.936 8.592 13.936C8.784 13.936 8.984 14 9.192 14.128C9.336 14.208 9.448 14.312 9.528 14.44L9.816 14.944C9.848 15.056 9.88 15.16 9.912 15.256C9.944 15.336 9.976 15.424 10.008 15.52C10.04 15.632 10.064 15.736 10.08 15.832C10.096 15.912 10.112 15.992 10.128 16.072C10.272 16.904 10.448 17.712 10.656 18.496C10.864 19.28 11.056 20.032 11.232 20.752C11.296 21.04 11.376 21.4 11.472 21.832C11.568 22.248 11.664 22.688 11.76 23.152C11.856 23.6 11.952 24.032 12.048 24.448C12.144 24.864 12.24 25.192 12.336 25.432C12.544 24.712 12.752 23.992 12.96 23.272C13.184 22.552 13.424 21.824 13.68 21.088C13.808 20.704 13.936 20.36 14.064 20.056C14.208 19.736 14.368 19.472 14.544 19.264C14.72 19.056 14.92 18.92 15.144 18.856C15.368 18.792 15.632 18.816 15.936 18.928C16.208 19.04 16.448 19.28 16.656 19.648C16.864 20.016 17.048 20.392 17.208 20.776C17.352 21.128 17.488 21.504 17.616 21.904C17.76 22.288 17.896 22.672 18.024 23.056C18.168 23.424 18.304 23.776 18.432 24.112C18.56 24.448 18.688 24.736 18.816 24.976C18.864 24.8 18.92 24.576 18.984 24.304C19.048 24.032 19.112 23.744 19.176 23.44C19.256 23.12 19.328 22.808 19.392 22.504C19.456 22.2 19.52 21.92 19.584 21.664C19.792 20.8 20.008 19.936 20.232 19.072C20.456 18.192 20.672 17.328 20.88 16.48L21 16.072C21.032 15.992 21.048 15.912 21.048 15.832C21.064 15.736 21.088 15.632 21.12 15.52C21.152 15.424 21.184 15.336 21.216 15.256C21.248 15.16 21.28 15.056 21.312 14.944C21.344 14.864 21.376 14.784 21.408 14.704C21.456 14.608 21.512 14.52 21.576 14.44C21.624 14.36 21.68 14.296 21.744 14.248C21.808 14.2 21.872 14.16 21.936 14.128C22.16 14 22.352 13.936 22.512 13.936C22.72 13.936 22.92 13.968 23.112 14.032C23.368 14.08 23.6 14.184 23.808 14.344C23.968 14.504 24.064 14.712 24.096 14.968Z" fill="#FEFFFF"/>
</g>
<g filter="url(#filter1_d_3891_5238)">
<path d="M35.096 14.968C35.16 15.272 35.16 15.592 35.096 15.928C35.064 16.088 35.032 16.248 35 16.408C34.984 16.552 34.96 16.704 34.928 16.864L34.904 16.96C34.68 17.952 34.424 19 34.136 20.104C33.864 21.192 33.616 22.224 33.392 23.2C33.2 24 33 24.88 32.792 25.84C32.584 26.8 32.368 27.68 32.144 28.48C32.064 28.752 31.976 29.024 31.88 29.296C31.8 29.568 31.696 29.84 31.568 30.112C31.456 30.352 31.32 30.568 31.16 30.76C31.016 30.936 30.848 31.064 30.656 31.144C30.464 31.24 30.256 31.272 30.032 31.24C29.824 31.224 29.592 31.128 29.336 30.952C28.952 30.68 28.664 30.304 28.472 29.824C28.296 29.344 28.112 28.904 27.92 28.504C27.856 28.392 27.76 28.144 27.632 27.76C27.504 27.376 27.368 26.96 27.224 26.512C27.08 26.048 26.936 25.608 26.792 25.192C26.664 24.76 26.552 24.44 26.456 24.232C26.312 24.584 26.168 24.984 26.024 25.432C25.88 25.88 25.744 26.32 25.616 26.752C25.488 27.184 25.368 27.576 25.256 27.928C25.16 28.264 25.088 28.512 25.04 28.672C24.912 28.992 24.768 29.344 24.608 29.728C24.464 30.112 24.28 30.44 24.056 30.712C23.848 30.984 23.592 31.16 23.288 31.24C22.984 31.336 22.624 31.248 22.208 30.976C21.888 30.784 21.664 30.512 21.536 30.16C21.456 29.936 21.376 29.72 21.296 29.512C21.216 29.304 21.152 29.088 21.104 28.864L20.624 27.064L19.64 23.2C19.512 22.704 19.384 22.2 19.256 21.688C19.144 21.16 19.008 20.616 18.848 20.056C18.768 19.784 18.696 19.52 18.632 19.264C18.584 18.992 18.528 18.704 18.464 18.4C18.416 18.08 18.352 17.72 18.272 17.32C18.208 16.92 18.128 16.456 18.032 15.928C18 15.752 17.976 15.592 17.96 15.448C17.96 15.288 17.976 15.128 18.008 14.968C18.04 14.728 18.152 14.52 18.344 14.344C18.424 14.264 18.52 14.2 18.632 14.152C18.744 14.104 18.864 14.064 18.992 14.032C19.184 13.968 19.384 13.936 19.592 13.936C19.784 13.936 19.984 14 20.192 14.128C20.336 14.208 20.448 14.312 20.528 14.44L20.816 14.944C20.848 15.056 20.88 15.16 20.912 15.256C20.944 15.336 20.976 15.424 21.008 15.52C21.04 15.632 21.064 15.736 21.08 15.832C21.096 15.912 21.112 15.992 21.128 16.072C21.272 16.904 21.448 17.712 21.656 18.496C21.864 19.28 22.056 20.032 22.232 20.752C22.296 21.04 22.376 21.4 22.472 21.832C22.568 22.248 22.664 22.688 22.76 23.152C22.856 23.6 22.952 24.032 23.048 24.448C23.144 24.864 23.24 25.192 23.336 25.432C23.544 24.712 23.752 23.992 23.96 23.272C24.184 22.552 24.424 21.824 24.68 21.088C24.808 20.704 24.936 20.36 25.064 20.056C25.208 19.736 25.368 19.472 25.544 19.264C25.72 19.056 25.92 18.92 26.144 18.856C26.368 18.792 26.632 18.816 26.936 18.928C27.208 19.04 27.448 19.28 27.656 19.648C27.864 20.016 28.048 20.392 28.208 20.776C28.352 21.128 28.488 21.504 28.616 21.904C28.76 22.288 28.896 22.672 29.024 23.056C29.168 23.424 29.304 23.776 29.432 24.112C29.56 24.448 29.688 24.736 29.816 24.976C29.864 24.8 29.92 24.576 29.984 24.304C30.048 24.032 30.112 23.744 30.176 23.44C30.256 23.12 30.328 22.808 30.392 22.504C30.456 22.2 30.52 21.92 30.584 21.664C30.792 20.8 31.008 19.936 31.232 19.072C31.456 18.192 31.672 17.328 31.88 16.48L32 16.072C32.032 15.992 32.048 15.912 32.048 15.832C32.064 15.736 32.088 15.632 32.12 15.52C32.152 15.424 32.184 15.336 32.216 15.256C32.248 15.16 32.28 15.056 32.312 14.944C32.344 14.864 32.376 14.784 32.408 14.704C32.456 14.608 32.512 14.52 32.576 14.44C32.624 14.36 32.68 14.296 32.744 14.248C32.808 14.2 32.872 14.16 32.936 14.128C33.16 14 33.352 13.936 33.512 13.936C33.72 13.936 33.92 13.968 34.112 14.032C34.368 14.08 34.6 14.184 34.808 14.344C34.968 14.504 35.064 14.712 35.096 14.968Z" fill="#FEFFFF"/>
</g>
<defs>
<filter id="filter0_d_3891_5238" x="2.95996" y="13.936" width="25.2321" height="25.448" filterUnits="userSpaceOnUse" color-interpolation-filters="sRGB">
<feFlood flood-opacity="0" result="BackgroundImageFix"/>
<feColorMatrix in="SourceAlpha" type="matrix" values="0 0 0 0 0 0 0 0 0 0 0 0 0 0 0 0 0 0 127 0" result="hardAlpha"/>
<feOffset dy="4"/>
<feGaussianBlur stdDeviation="2"/>
<feComposite in2="hardAlpha" operator="out"/>
<feColorMatrix type="matrix" values="0 0 0 0 0 0 0 0 0 0 0 0 0 0 0 0 0 0 0.25 0"/>
<feBlend mode="normal" in2="BackgroundImageFix" result="effect1_dropShadow_3891_5238"/>
<feBlend mode="normal" in="SourceGraphic" in2="effect1_dropShadow_3891_5238" result="shape"/>
</filter>
<filter id="filter1_d_3891_5238" x="13.96" y="13.936" width="25.2321" height="25.448" filterUnits="userSpaceOnUse" color-interpolation-filters="sRGB">
<feFlood flood-opacity="0" result="BackgroundImageFix"/>
<feColorMatrix in="SourceAlpha" type="matrix" values="0 0 0 0 0 0 0 0 0 0 0 0 0 0 0 0 0 0 127 0" result="hardAlpha"/>
<feOffset dy="4"/>
<feGaussianBlur stdDeviation="2"/>
<feComposite in2="hardAlpha" operator="out"/>
<feColorMatrix type="matrix" values="0 0 0 0 0 0 0 0 0 0 0 0 0 0 0 0 0 0 0.25 0"/>
<feBlend mode="normal" in2="BackgroundImageFix" result="effect1_dropShadow_3891_5238"/>
<feBlend mode="normal" in="SourceGraphic" in2="effect1_dropShadow_3891_5238" result="shape"/>
</filter>
</defs>
</svg>
